<svg xmlns="http://www.w3.org/2000/svg" width="33" height="35" viewBox="0 0 33 35">
  <metadata><?xpacket begin="﻿" id="W5M0MpCehiHzreSzNTczkc9d"?>
<x:xmpmeta xmlns:x="adobe:ns:meta/" x:xmptk="Adobe XMP Core 5.6-c138 79.159824, 2016/09/14-01:09:01        ">
   <rdf:RDF xmlns:rdf="http://www.w3.org/1999/02/22-rdf-syntax-ns#">
      <rdf:Description rdf:about=""/>
   </rdf:RDF>
</x:xmpmeta>

<?xpacket end="w"?></metadata>
<defs>
    <style>
      .cls-1 {
        fill: #00a651;
        fill-rule: evenodd;
      }
    </style>
  </defs>
  <path class="cls-1" d="M438.283,129.291c3.364,3.8,3.2,9.011,2.734,12.027-3.044-3.178-8.251-5.927-10.664-7.082a35.391,35.391,0,0,1-5.465-3.172,14.18,14.18,0,0,0,1.033,1.428q0.776,0.785,1.568,1.572c0.791,0.724,1.621,1.415,2.466,2.083q0.855,0.584,1.834,1.2a47.542,47.542,0,0,1,8.317,6.638q0.526,0.526,1.025,1.06a30.508,30.508,0,0,1,4.736,6.406,1.167,1.167,0,0,1-.467,1.544l-1.5.886a0.906,0.906,0,0,1-1.295-.47,26.279,26.279,0,0,0-5.287-7.906c-12.074,5.627-19.688-3.459-21.754-7.335C411,129.6,413.923,119,413.923,119,419.147,127.2,432.107,122.315,438.283,129.291Z" transform="translate(-413 -119)"/>
</svg>
